Coordinates
version=1
nRows=27
nColumns=38
inDegrees=no

Units are S.I. units (second, meters, Newtons, ...)
If the header above contains a line with 'inDegrees', this indicates whether rotational values are in degrees (yes) or radians (no).

endheader
time	pelvis_tilt	pelvis_list	pelvis_rotation	pelvis_tx	pelvis_ty	pelvis_tz	hip_flexion_r	hip_adduction_r	hip_rotation_r	knee_angle_r	ankle_angle_r	subtalar_angle_r	mtp_angle_r	hip_flexion_l	hip_adduction_l	hip_rotation_l	knee_angle_l	ankle_angle_l	subtalar_angle_l	mtp_angle_l	lumbar_extension	lumbar_bending	lumbar_rotation	arm_flex_r	arm_add_r	arm_rot_r	elbow_flex_r	pro_sup_r	wrist_flex_r	wrist_dev_r	arm_flex_l	arm_add_l	arm_rot_l	elbow_flex_l	pro_sup_l	wrist_flex_l	wrist_dev_l
8.4325	0.187144	0.111367	-3.97398	-0.243703	0.990076	-0.0206959	0.227369	0.240819	0.29776	0.222049	0.020319	0	0	0.409656	-0.515999	-0.160048	1.08433	-0.226494	0	0	0.0858814	0.328993	-0.337753	-0.621348	-1.38457	-0.786818	1.79073	1.307	0	0	1.60638	-0.853735	1.6006	1.25942	1.57213	0	0
8.4425	0.187643	0.105536	-3.9856	-0.243237	0.990356	-0.0233727	0.227774	0.241163	0.309177	0.221453	0.0195412	0	0	0.425707	-0.508816	-0.129436	1.09761	-0.274493	0	0	0.0916305	0.329385	-0.333679	-0.508155	-1.43702	-0.69395	1.80774	1.30354	0	0	1.61423	-0.859744	1.60862	1.22187	1.57189	0	0
8.45249	0.187309	0.0985986	-3.99646	-0.242765	0.990596	-0.0261333	0.228376	0.240129	0.320507	0.220362	0.018625	0	0	0.440468	-0.499451	-0.0993028	1.10759	-0.322449	0	0	0.0981919	0.326703	-0.328771	-0.368671	-1.49203	-0.570397	1.82521	1.29777	0	0	1.62241	-0.86342	1.61702	1.1827	1.57163	0	0
8.46248	0.186163	0.0904129	-4.00644	-0.242347	0.990822	-0.0290889	0.229246	0.237616	0.33172	0.218632	0.0175063	0	0	0.453844	-0.487936	-0.0698448	1.11405	-0.369716	0	0	0.105989	0.320653	-0.323327	-0.217552	-1.54478	-0.430875	1.84299	1.28944	0	0	1.62991	-0.865291	1.62481	1.1416	1.57138	0	0
8.47247	0.184216	0.0808963	-4.01541	-0.242009	0.991129	-0.0323317	0.230392	0.233564	0.342779	0.216177	0.0161349	0	0	0.465696	-0.474337	-0.0411976	1.11681	-0.415659	0	0	0.11546	0.310946	-0.31766	-0.0801016	-1.58743	-0.300067	1.86097	1.27825	0	0	1.6352	-0.866131	1.63055	1.09828	1.57115	0	0
8.48246	0.181443	0.0700693	-4.02321	-0.241687	0.991669	-0.0358896	0.231778	0.227987	0.353615	0.21305	0.0144986	0	0	0.475948	-0.458763	-0.0133684	1.11591	-0.45971	0	0	0.126902	0.297207	-0.31203	0.00505846	-1.60832	-0.214015	1.8791	1.26374	0	0	1.63617	-0.866979	1.63227	1.05275	1.57095	0	0
8.49245	0.177824	0.0581254	-4.0298	-0.241235	0.992525	-0.0396661	0.233425	0.221034	0.364098	0.209429	0.012638	0	0	0.484665	-0.441366	0.0138145	1.11175	-0.501408	0	0	0.139866	0.279227	-0.306367	0.0157553	-1.60045	-0.193815	1.89756	1.2454	0	0	1.63005	-0.868426	1.62737	1.00548	1.57079	0	0
8.50244	0.173423	0.0453803	-4.03526	-0.240604	0.993751	-0.0435875	0.235272	0.212938	0.374117	0.20549	0.010616	0	0	0.491836	-0.422391	0.040511	1.10481	-0.540246	0	0	0.153748	0.257494	-0.300658	-0.0557715	-1.56097	-0.247575	1.91669	1.22301	0	0	1.61344	-0.871851	1.61268	0.957008	1.57067	0	0
8.51243	0.168409	0.0323382	-4.03984	-0.239886	0.995359	-0.0476389	0.237153	0.204068	0.383586	0.201431	0.00852905	0	0	0.497351	-0.402222	0.0668734	1.09575	-0.575679	0	0	0.167675	0.233427	-0.29493	-0.203581	-1.49165	-0.371602	1.937	1.19668	0	0	1.58234	-0.879522	1.58443	0.908093	1.57059	0	0
8.52242	0.162969	0.0192866	-4.04376	-0.239252	0.997292	-0.0519158	0.238988	0.19467	0.392481	0.19735	0.0064458	0	0	0.501159	-0.381164	0.092923	1.08505	-0.607164	0	0	0.181193	0.208133	-0.289244	-0.407173	-1.39959	-0.546427	1.95892	1.16643	0	0	1.53232	-0.893666	1.53846	0.859122	1.57056	0	0
8.53242	0.157256	0.00707357	-4.04734	-0.238841	0.99937	-0.0563326	0.240514	0.185274	0.400642	0.193672	0.00457334	0	0	0.503245	-0.359789	0.118811	1.0739	-0.634256	0	0	0.192746	0.183899	-0.283708	-0.63013	-1.29789	-0.739733	1.98266	1.13276	0	0	1.45885	-0.91737	1.47046	0.811818	1.57059	0	0
8.54241	0.151446	-0.00347814	-4.05087	-0.23865	1.00141	-0.0607487	0.241436	0.176488	0.407923	0.190798	0.00313483	0	0	0.503556	-0.338794	0.144578	1.06336	-0.656658	0	0	0.200966	0.162658	-0.278362	-0.847629	-1.19534	-0.929416	2.00863	1.09613	0	0	1.35776	-0.953369	1.37644	0.767848	1.57068	0	0
8.5524	0.145699	-0.0118118	-4.05456	-0.238587	1.00327	-0.0650088	0.241565	0.168772	0.414259	0.188993	0.00228579	0	0	0.502141	-0.318795	0.170068	1.0542	-0.674337	0	0	0.20495	0.145723	-0.273236	-1.04422	-1.09758	-1.10165	2.037	1.05687	0	0	1.22601	-1.00359	1.25342	0.728371	1.57085	0	0
8.56239	0.140152	-0.0176031	-4.05857	-0.23857	1.00485	-0.0689937	0.240794	0.162448	0.419657	0.188392	0.00212046	0	0	0.499131	-0.300371	0.194882	1.04698	-0.687637	0	0	0.204244	0.13383	-0.268329	-1.21166	-1.00776	-1.249	2.06774	1.01519	0	0	1.06269	-1.06877	1.10036	0.694111	1.57111	0	0
8.57238	0.134908	-0.0207882	-4.06297	-0.238567	1.00603	-0.0726189	0.239092	0.15767	0.424204	0.188978	0.00265336	0	0	0.494749	-0.284054	0.218335	1.04198	-0.69714	0	0	0.198908	0.127093	-0.263553	-1.34696	-0.927253	-1.3687	2.10057	0.971112	0	0	0.870309	-1.14784	0.919364	0.665251	1.57148	0	0
8.58237	0.130019	-0.021597	-4.06777	-0.238576	1.00666	-0.0757814	0.236507	0.154388	0.42808	0.190554	0.00379975	0	0	0.489306	-0.270338	0.239392	1.03918	-0.703532	0	0	0.189615	0.124938	-0.258697	-1.45069	-0.856247	-1.4612	2.13488	0.924469	0	0	0.656455	-1.2372	0.717236	0.641343	1.57195	0	0
8.59236	0.125497	-0.0205754	-4.07279	-0.238605	1.0067	-0.0783234	0.233181	0.152336	0.431482	0.192745	0.00537399	0	0	0.483033	-0.259282	0.257408	1.03804	-0.707508	0	0	0.177732	0.12607	-0.253536	-1.52568	-0.794281	-1.52897	2.16991	0.874937	0	0	0.435686	-1.33018	0.50727	0.621524	1.57253	0	0
8.60235	0.121284	-0.018768	-4.07771	-0.238647	1.00632	-0.080162	0.22945	0.150888	0.43468	0.194913	0.00700991	0	0	0.47614	-0.250388	0.272097	1.03736	-0.709712	0	0	0.165607	0.128181	-0.247447	-1.57592	-0.740309	-1.57555	2.20443	0.822124	0	0	0.231672	-1.41535	0.311265	0.603711	1.57322	0	0
8.61234	0.117492	-0.0165017	-4.08242	-0.238661	1.00583	-0.0813553	0.225507	0.149954	0.437583	0.196904	0.00865913	0	0	0.469044	-0.243973	0.282863	1.037	-0.710692	0	0	0.154052	0.130561	-0.240929	-1.60588	-0.694396	-1.60492	2.23655	0.768566	0	0	0.056252	-1.48892	0.143019	0.587669	1.57382	0	0
8.62234	0.114226	-0.0136225	-4.08688	-0.238627	1.00538	-0.0820238	0.22139	0.14971	0.439985	0.198866	0.0104443	0	0	0.462105	-0.240395	0.289428	1.03742	-0.710881	0	0	0.142694	0.133565	-0.234531	-1.61996	-0.655702	-1.62099	2.26576	0.716397	0	0	-0.0952203	-1.55387	-0.000653484	0.574451	1.5741	0	0
8.63233	0.111478	-0.0106313	-4.09083	-0.238554	1.00512	-0.0824207	0.217327	0.14985	0.441801	0.200561	0.012236	0	0	0.455592	-0.239415	0.291822	1.03811	-0.710587	0	0	0.132615	0.136184	-0.228496	-1.62224	-0.623922	-1.62736	2.29106	0.666991	0	0	-0.212301	-1.60617	-0.10871	0.563842	1.57382	0	0
8.64232	0.109224	-0.00762838	-4.09403	-0.238466	1.00505	-0.0827096	0.213394	0.150275	0.442861	0.202001	0.0140574	0	0	0.449684	-0.240826	0.29033	1.0391	-0.709992	0	0	0.123855	0.138357	-0.223064	-1.61626	-0.597866	-1.62709	2.31275	0.621062	0	0	-0.297298	-1.64723	-0.183274	0.5568	1.57269	0	0
8.65231	0.107413	-0.00434717	-4.09628	-0.238397	1.00505	-0.0828458	0.209514	0.15107	0.442929	0.203416	0.0160736	0	0	0.444449	-0.24443	0.285483	1.04079	-0.709154	0	0	0.115489	0.140886	-0.218437	-1.6051	-0.575351	-1.62271	2.33254	0.578078	0	0	-0.36393	-1.68328	-0.23834	0.555415	1.57039	0	0
8.6623	0.105943	-0.000221707	-4.09749	-0.238394	1.00498	-0.0825398	0.205491	0.15244	0.441721	0.205246	0.0185827	0	0	0.439837	-0.249999	0.278067	1.04402	-0.708009	0	0	0.105672	0.145512	-0.21485	-1.59135	-0.553235	-1.61618	2.35342	0.536712	0	0	-0.435897	-1.72505	-0.298036	0.562842	1.5666	0	0
8.67229	0.104593	0.0045406	-4.09732	-0.238513	1.00485	-0.081767	0.201349	0.15406	0.43916	0.207462	0.0215607	0	0	0.43589	-0.257055	0.268407	1.04863	-0.706389	0	0	0.0945617	0.152112	-0.211622	-1.57728	-0.528964	-1.60893	2.37725	0.495542	0	0	-0.517624	-1.77257	-0.368464	0.578103	1.56098	0	0
8.68228	0.103541	0.0102128	-4.09576	-0.238716	1.0047	-0.0803963	0.197078	0.156235	0.435033	0.210177	0.0250861	0	0	0.432618	-0.265489	0.257261	1.05483	-0.704024	0	0	0.0816625	0.160685	-0.209885	-1.56339	-0.505041	-1.60196	2.40226	0.459545	0	0	-0.614582	-1.8296	-0.453558	0.602684	1.55319	0	0
8.69227	0.102843	0.0162404	-4.09248	-0.238988	1.00464	-0.0787216	0.192901	0.158708	0.429341	0.213005	0.0288881	0	0	0.430074	-0.274854	0.245015	1.06168	-0.700561	0	0	0.068659	0.169253	-0.209848	-1.55015	-0.484675	-1.59586	2.42566	0.433593	0	0	-0.711429	-1.88856	-0.537931	0.633884	1.54296	0	0
